<svg width="123" height="123" viewBox="0 0 123 123" fill="none" xmlns="http://www.w3.org/2000/svg">
<g id=" Fill / arrow-left">
<path id="Verctor" fill-rule="evenodd" clip-rule="evenodd" d="M96.8379 56.4724H36.4484L54.9394 34.2812C56.7411 32.1232 56.4459 28.9116 54.2879 27.1149C52.1248 25.3132 48.9182 25.6084 47.1216 27.7664L21.673 58.3047C21.4745 58.5439 21.3727 58.8238 21.2251 59.0885C21.103 59.3023 20.9554 59.4855 20.8637 59.7196C20.6347 60.305 20.4973 60.9208 20.4973 61.5418C20.4973 61.5468 20.4922 61.557 20.4922 61.5621C20.4922 61.5672 20.4973 61.5774 20.4973 61.5825C20.4973 62.2034 20.6347 62.8193 20.8637 63.4046C20.9554 63.6387 21.103 63.8219 21.2251 64.0357C21.3727 64.3004 21.4745 64.5803 21.673 64.8195L47.1216 95.3578C48.1293 96.5641 49.5748 97.1901 51.0305 97.1901C52.1807 97.1901 53.3361 96.8033 54.2879 96.0093C56.4459 94.2126 56.7411 91.001 54.9394 88.843L36.4484 66.6518H96.8379C99.6474 66.6518 101.928 64.3716 101.928 61.5621C101.928 58.7526 99.6474 56.4724 96.8379 56.4724Z" fill="#757D8A"/>
</g>
</svg>
